<svg id="svg2" xmlns:rdf="http://www.w3.org/1999/02/22-rdf-syntax-ns#" xmlns="http://www.w3.org/2000/svg" height="8.7368mm" width="26.442mm" version="1.1" xmlns:cc="http://creativecommons.org/ns#" xmlns:dc="http://purl.org/dc/elements/1.1/" viewBox="0 0 93.691401 30.957031">
 <g id="layer1" transform="translate(-172.27 -253.4)">
  <g id="text4136" fill="#50a8f8">
   <path id="path4141" d="m187.42 265.92q2.0117 0 3.1445-1.0156t1.1328-2.793q0-1.1523-0.80078-1.7578-0.78125-0.60547-2.2656-0.60547h-4.1992l-1.2109 6.1719h4.1992zm-2.2266 12.754q2.5781 0 3.9648-1.2305t1.3867-3.5352q0-1.4648-0.95703-2.168-0.95704-0.70312-2.9297-0.70312h-4.4336l-1.4844 7.6367h4.4531zm8.9062-10.488q1.9141 0.54688 2.9492 2.0117 1.0547 1.4453 1.0547 3.5938 0 4.707-3.5156 7.3633-3.4961 2.6367-9.8438 2.6367h-12.48l5.6836-29.16h11.27q5.1953 0 7.6758 1.5234 2.5 1.5234 2.5 4.707 0 2.6758-1.4648 4.707-1.4648 2.0117-3.8281 2.6172z"/>
   <path id="path4143" d="m209.03 253.4h7.0312l-5.918 30.391h-7.0117l5.8984-30.391z"/>
   <path id="path4145" d="m218.36 275.28 2.5586-13.359h7.0117l-2.207 11.387q-0.23438 1.1133-0.35156 1.8945-0.11719 0.78125-0.11719 1.2305 0 1.2305 0.68359 1.9141 0.6836 0.6836 1.9531 0.6836 2.168 0 3.7305-1.6797t2.1484-4.668l2.1094-10.762h7.0117l-4.2383 21.875h-7.0508l0.64454-3.2031q-1.7969 1.8945-3.7695 2.832t-4.1602 0.9375q-2.9883 0-4.6289-1.582t-1.6406-4.4727q0-0.68359 0.0781-1.4453 0.0781-0.76172 0.23438-1.582z"/>
   <path id="path4147" d="m264.73 267.87q-0.72265-0.41015-1.6016-0.625-0.8789-0.21484-1.8945-0.21484-2.6758 0-4.4531 1.7188-1.7578 1.7188-2.3828 4.9609l-1.9922 10.078h-7.0117l4.2578-21.875h7.0312l-0.76172 3.75q1.3867-2.0703 3.457-3.1641 2.0898-1.1133 4.6289-1.1133 0.37109 0 0.83984 0.0391t1.1133 0.11719l-1.2305 6.3281z"/>
  </g>
 </g>
</svg>
